<?xml version="1.0" encoding="utf-8"?>
<!-- Generator: Adobe Illustrator 15.0.2, SVG Export Plug-In . SVG Version: 6.00 Build 0)  -->
<!DOCTYPE svg PUBLIC "-//W3C//DTD SVG 1.1//EN" "http://www.w3.org/Graphics/SVG/1.1/DTD/svg11.dtd">
<svg version="1.1" id="Layer_25" xmlns="http://www.w3.org/2000/svg" xmlns:xlink="http://www.w3.org/1999/xlink" x="0px" y="0px"
	 width="100px" height="100px" viewBox="0 0 100 100" style="enable-background:new 0 0 100 100;" xml:space="preserve">
<g>
	<g>
		<path style="fill-rule:evenodd;clip-rule:evenodd;fill:#FFFFFF;" d="M49.999,3.762c-25.688,0-46.513,20.825-46.513,46.514
			c0,25.688,20.825,46.513,46.513,46.513c25.689,0,46.515-20.825,46.515-46.513C96.514,24.586,75.688,3.762,49.999,3.762z
			 M49.999,91.595c-22.82,0-41.318-18.5-41.318-41.319c0-22.82,18.498-41.319,41.318-41.319s41.319,18.499,41.319,41.319
			C91.318,73.095,72.819,91.595,49.999,91.595z M38.51,43.447l18.254-17.023H42.095l-25.83,24.087l25.83,21.551h14.668L36.36,55.037
			h45.941v-11.59H38.51z"/>
	</g>
</g>
</svg>
