<?xml version="1.0" encoding="utf-8"?>
<!-- Generator: Adobe Illustrator 15.0.2, SVG Export Plug-In . SVG Version: 6.00 Build 0)  -->
<!DOCTYPE svg PUBLIC "-//W3C//DTD SVG 1.1//EN" "http://www.w3.org/Graphics/SVG/1.1/DTD/svg11.dtd">
<svg version="1.1" xmlns="http://www.w3.org/2000/svg" xmlns:xlink="http://www.w3.org/1999/xlink" x="0px" y="0px" width="80px"
	 height="80px" viewBox="0 0 80 80" style="enable-background:new 0 0 80 80;" xml:space="preserve">
<g id="Layer_4">
	<path style="fill:#414042;" d="M5.625,10.75v54.334h73.334V10.75H5.625z M72.792,59.417h-61v-43h61V59.417z"/>
	<path d="M11.78,16.438c0,0,0.047,20.996,0,20.98c-2-0.682-4.042-1.181-6.156-1.477c0-0.361,0-25.191,0-25.191h73.334v54.334H79V11
		H1c0,0,0,21.702,0,24.247V69h34.208H79v-3.916c0,0-43.136,0-44.592,0c-0.241-1.931-0.646-3.81-1.198-5.625l39.55-0.031V16.406
		L11.78,16.438z M68.292,54.563H31.277c-3.3-6.78-7.797-12.295-14.583-15.585c-0.015-0.007,14.764,17.478,14.764,17.478
		l38.375,0.875L68.292,54.563z"/>
	<g>
		<path style="fill:#FFFFFF;" d="M1.042,46.625c12.495,0,22.625,10.13,22.625,22.625h7c0-16.361-13.264-29.625-29.625-29.625V46.625
			z"/>
		<path style="fill:#FFFFFF;" d="M1.042,50.125v6.75c6.559,0,11.875,5.316,11.875,11.875c0,0.169-0.019,0.333-0.025,0.5h7.275
			C20.167,58.688,11.604,50.125,1.042,50.125z"/>
		<path style="fill:#FFFFFF;" d="M1.042,61v8.25h7.725c0.011-0.166,0.025-0.331,0.025-0.5C8.792,64.47,5.322,61,1.042,61z"/>
	</g>
</g>
<g id="Layer_2">
</g>
<g id="Layer_3">
	<path style="fill:#FFFFFF;" d="M11.78,37.418v-20.98l60.98-0.031l0.031,43.011c0,0-39.016,0.041-39.581,0.041
		c0.935,2.95,1.198,5.625,1.198,5.625l44.55,0V10.75H5.625c0,0,0,24.755,0,25.191C9.411,36.486,11.78,37.418,11.78,37.418z"/>
</g>
</svg>
