<?xml version="1.0" encoding="utf-8"?>
<!-- Generator: Adobe Illustrator 15.0.0, SVG Export Plug-In . SVG Version: 6.00 Build 0)  -->
<!DOCTYPE svg PUBLIC "-//W3C//DTD SVG 1.1//EN" "http://www.w3.org/Graphics/SVG/1.1/DTD/svg11.dtd" [
	<!ENTITY st0 "display:inline;opacity:0.22;">
	<!ENTITY st1 "display:inline;fill:#FFFFFF;">
	<!ENTITY st2 "fill:#FFFFFF;">
	<!ENTITY st3 "fill:none;">
	<!ENTITY st4 "display:inline;">
	<!ENTITY st5 "display:inline;fill:#00AEEF;">
	<!ENTITY st6 "fill-rule:evenodd;clip-rule:evenodd;fill:#FFFFFF;">
	<!ENTITY st7 "display:none;">
	<!ENTITY st8 "fill-rule:evenodd;clip-rule:evenodd;fill:url(#SVGID_1_);">
	<!ENTITY st9 "fill-rule:evenodd;clip-rule:evenodd;fill:url(#SVGID_3_);">
	<!ENTITY st10 "fill-rule:evenodd;clip-rule:evenodd;fill:url(#SVGID_4_);">
	<!ENTITY st11 "display:inline;opacity:0.62;fill-rule:evenodd;clip-rule:evenodd;fill:url(#SVGID_2_);">
]>
<svg version="1.1" xmlns="http://www.w3.org/2000/svg" xmlns:xlink="http://www.w3.org/1999/xlink" x="0px" y="0px" width="100px"
	 height="100px" viewBox="0 0 100 100" style="enable-background:new 0 0 100 100;" xml:space="preserve">
<g id="BG" style="&st7;">
	<rect y="0.274" style="&st5;" width="100" height="100"/>
</g>
<g id="Layer_7" style="&st7;">
	<g style="&st4;">
		<g>
			<linearGradient id="SVGID_1_" gradientUnits="userSpaceOnUse" x1="9.0884" y1="13.6719" x2="101.114" y2="85.5702">
				<stop  offset="0" style="stop-color:#ADADAD"/>
				<stop  offset="1" style="stop-color:#494949"/>
			</linearGradient>
			<path style="&st8;" d="M59.313,30.967c0-15.514-12.576-28.089-28.088-28.089c-15.514,0-28.09,12.575-28.09,28.089
				c0,15.512,12.576,28.087,28.09,28.087C46.737,59.055,59.313,46.479,59.313,30.967z M31.225,50.092
				c-10.565,0-19.128-8.564-19.128-19.129c0-10.563,8.563-19.126,19.128-19.126c10.563,0,19.126,8.563,19.126,19.126
				C50.351,41.528,41.787,50.092,31.225,50.092z M94.651,83.387L62.959,53.199c-2.854-2.716-7.369-2.606-10.086,0.246l-1.367,1.436
				c-2.72,2.853-2.609,7.367,0.244,10.085l31.692,30.188c2.853,2.718,7.37,2.608,10.087-0.244l1.366-1.436
				C97.613,90.622,97.504,86.104,94.651,83.387z"/>
		</g>
	</g>
	<linearGradient id="SVGID_2_" gradientUnits="userSpaceOnUse" x1="16.4253" y1="18.9824" x2="46.0229" y2="42.9501">
		<stop  offset="0" style="stop-color:#ADADAD"/>
		<stop  offset="1" style="stop-color:#8A8A8A"/>
	</linearGradient>
	<path style="&st11;" d="M31.224,11.924c10.517,0,19.042,8.526,19.042,19.043c0,10.516-8.526,19.042-19.042,19.042
		c-10.516,0-19.042-8.527-19.042-19.042C12.182,20.45,20.708,11.924,31.224,11.924z"/>
	<g style="&st0;">
		<g>
			<path style="&st6;" d="M42.616,15.749c-3.234-2.518-7.288-4.032-11.704-4.032c-10.542,0-19.089,8.547-19.089,19.088
				c0,1.735,0.252,3.408,0.686,5.005c0.374,0.013,0.748,0.028,1.125,0.028C26.905,35.838,38.22,27.483,42.616,15.749z"/>
		</g>
	</g>
</g>
<g id="Layer_8">
	<g>
		<g>
			<linearGradient id="SVGID_3_" gradientUnits="userSpaceOnUse" x1="19.856" y1="50.2744" x2="99.043" y2="50.2744">
				<stop  offset="0" style="stop-color:#ADADAD"/>
				<stop  offset="1" style="stop-color:#8A8A8A"/>
			</linearGradient>
			<path style="&st9;" d="M24.601,34.638h52.233c2.621,0,4.746-2.657,4.746-5.935v-1.961c0-3.278-2.125-5.935-4.746-5.935H24.601
				c-2.62,0-4.744,2.657-4.744,5.935v1.961C19.857,31.981,21.981,34.638,24.601,34.638z M92.955,42.765H25.943
				c-3.361,0-6.087,2.657-6.087,5.935v1.961c0,3.277,2.726,5.933,6.087,5.933h67.012c3.363,0,6.088-2.656,6.088-5.933V48.7
				C99.043,45.422,96.318,42.765,92.955,42.765z M86.891,65.909H25.438c-3.082,0-5.582,2.658-5.582,5.936v1.963
				c0,3.276,2.5,5.935,5.582,5.935h61.453c3.084,0,5.582-2.658,5.582-5.935v-1.963C92.473,68.567,89.975,65.909,86.891,65.909z"/>
		</g>
	</g>
	<g>
		<g>
			<linearGradient id="SVGID_4_" gradientUnits="userSpaceOnUse" x1="0.957" y1="50.2744" x2="14.0688" y2="50.2744">
				<stop  offset="0" style="stop-color:#ADADAD"/>
				<stop  offset="1" style="stop-color:#8A8A8A"/>
			</linearGradient>
			<path style="&st10;" d="M7.513,43.126c-3.62,0-6.556,2.932-6.556,6.554s2.936,6.556,6.556,6.556c3.621,0,6.556-2.935,6.556-6.556
				S11.133,43.126,7.513,43.126z M7.513,34.278c3.621,0,6.556-2.937,6.556-6.557c0-3.62-2.936-6.555-6.556-6.555
				c-3.62,0-6.556,2.935-6.556,6.555C0.957,31.342,3.893,34.278,7.513,34.278z M7.513,66.272c-3.62,0-6.556,2.935-6.556,6.554
				c0,3.621,2.936,6.556,6.556,6.556c3.621,0,6.556-2.935,6.556-6.556C14.069,69.207,11.133,66.272,7.513,66.272z"/>
		</g>
	</g>
</g>
<g id="movie_clap" style="&st7;">
	<path style="&st1;" d="M92.209,95.469c0,2.109-1.883,3.82-4.203,3.82H5.517c-2.322,0-4.204-1.711-4.204-3.82V44.723
		c0-2.111-0.22-2.285,2.102-2.285h86.692c2.321,0,2.103-0.338,2.103,1.773V95.469z M83.538,59.629c0-0.426-0.424-0.771-0.948-0.771
		H12.455c-0.523,0-0.948,0.346-0.948,0.771l0,0c0,0.426,0.425,0.771,0.948,0.771H82.59C83.114,60.4,83.538,60.055,83.538,59.629
		L83.538,59.629z M83.538,82.756c0-0.426-0.424-0.771-0.948-0.771H12.455c-0.523,0-0.948,0.346-0.948,0.771l0,0
		c0,0.426,0.425,0.77,0.948,0.77H82.59C83.114,83.525,83.538,83.182,83.538,82.756L83.538,82.756z M83.538,71.191
		c0-0.426-0.424-0.77-0.948-0.77H12.455c-0.523,0-0.948,0.344-0.948,0.77l0,0c0,0.426,0.425,0.771,0.948,0.771H82.59
		C83.114,71.963,83.538,71.617,83.538,71.191L83.538,71.191z"/>
	<path style="&st1;" d="M16.649,35.377l-0.756-3.426h77.629v9.02H18.082l1.051-4.16L16.649,35.377z M40.13,33.045h-6.192
		l-5.504,6.667h6.192L40.13,33.045z M50.639,33.045h-6.192l-5.504,6.667h6.192L50.639,33.045z M82.163,33.045h-6.192l-5.505,6.667
		h6.192L82.163,33.045z M92.671,33.045h-6.191l-5.505,6.667h6.192L92.671,33.045z M61.146,33.045h-6.191l-5.505,6.667h6.192
		L61.146,33.045z M71.654,33.045h-6.192l-5.503,6.667h6.191L71.654,33.045z M29.623,33.045h-6.192l-5.504,6.667h6.191L29.623,33.045
		z"/>
	<path style="&st1;" d="M0.761,24.725L89.592,0l2.438,8.75L14.859,30.23l-8.817-3.851L0.761,24.725z M62.373,15.978l5.961-1.68
		l-7.239-5.395l-5.959,1.68L62.373,15.978z M52.26,18.828l5.96-1.68l-7.239-5.395l-5.959,1.68L52.26,18.828z M21.918,27.379
		l5.96-1.679l-7.24-5.396l-5.96,1.68L21.918,27.379z M42.146,21.679l5.959-1.68l-7.239-5.395l-5.958,1.68L42.146,21.679z
		 M32.032,24.529l5.959-1.68l-7.24-5.396l-5.959,1.681L32.032,24.529z M72.488,13.127l5.96-1.68l-7.239-5.396l-5.96,1.681
		L72.488,13.127z M82.603,10.276l5.959-1.68l-7.239-5.395l-5.959,1.68L82.603,10.276z"/>
	<path style="&st1;" d="M0.919,24.114c0.426,0,9.654,0,9.654,0l10.574,12.767c0,0,0,3.036,0,3.222c0,0.186-0.624,0.869-1.051,0.869
		c-0.427,0-16.944,0-17.995,0S0,40.475,0,39.607c0-0.868,0-14.626,0-14.626S0.493,24.114,0.919,24.114z M16.375,35.971
		c-0.87,0-1.577,0.667-1.577,1.487c0,0.822,0.707,1.488,1.577,1.488c0.871,0,1.576-0.666,1.576-1.488
		C17.951,36.638,17.246,35.971,16.375,35.971z M4.705,35.884c-0.871,0-1.576,0.666-1.576,1.487c0,0.822,0.706,1.488,1.576,1.488
		s1.576-0.667,1.576-1.488C6.281,36.55,5.576,35.884,4.705,35.884z M4.521,26.389c-0.87,0-1.576,0.667-1.576,1.487
		c0,0.822,0.706,1.488,1.576,1.488c0.871,0,1.576-0.666,1.576-1.488C6.097,27.055,5.392,26.389,4.521,26.389z"/>
</g>
<g id="IPTV" style="&st7;">
	<path style="&st1;" d="M60.311,22.691c0,3.805-3.085,6.89-6.89,6.89H44.16c-3.805,0-6.89-3.085-6.89-6.89l0,0
		c0-3.805,3.085-6.89,6.89-6.89h9.261C57.226,15.802,60.311,18.887,60.311,22.691L60.311,22.691z"/>
	<path style="&st1;" d="M53.792,21.924c0.396,0.397,0.396,1.04,0,1.438l0,0c-0.396,0.396-1.04,0.396-1.437,0L31.592,2.597
		c-0.397-0.397-0.397-1.041,0-1.438l0,0c0.395-0.396,1.041-0.396,1.437,0L53.792,21.924z"/>
	<path style="&st1;" d="M46.571,22.398c-0.399,0.392-1.047,0.392-1.438-0.007l0,0c-0.397-0.399-0.394-1.042,0.005-1.438
		L66.005,0.293c0.399-0.394,1.045-0.391,1.44,0.008l0,0c0.396,0.399,0.39,1.041-0.009,1.437L46.571,22.398z"/>
	<path style="&st1;" d="M94.871,68.624c0,11.975-9.71,21.684-21.686,21.684H21.685C9.709,90.308,0,80.599,0,68.624V42.421
		c0-11.976,9.709-21.685,21.685-21.685h51.501c11.976,0,21.686,9.709,21.686,21.685V68.624z M89.901,42.985
		c0-10.851-8.143-17.839-20.409-17.839H25.378c-12.266,0-20.409,6.988-20.409,17.839v25.072c0,10.852,8.143,17.842,20.409,17.842
		h44.114c12.267,0,20.409-6.99,20.409-17.842V42.985z"/>
	<g style="&st4;">
		<rect x="19.297" y="44.866" style="&st3;" width="78.413" height="35.055"/>
		<path style="&st2;" d="M24.304,45.974v20.702h-2.703V45.974H24.304z"/>
		<path style="&st2;" d="M28.974,46.219c1.29-0.215,2.979-0.399,5.129-0.399c2.642,0,4.577,0.614,5.805,1.721
			c1.106,0.982,1.813,2.487,1.813,4.331c0,1.873-0.553,3.348-1.597,4.424c-1.444,1.504-3.717,2.271-6.328,2.271
			c-0.798,0-1.536-0.029-2.15-0.184v8.293h-2.672V46.219z M31.646,56.201c0.583,0.154,1.321,0.217,2.211,0.217
			c3.225,0,5.191-1.598,5.191-4.393c0-2.765-1.966-4.085-4.884-4.085c-1.167,0-2.058,0.092-2.519,0.215V56.201z"/>
		<path style="&st2;" d="M49.249,48.247h-6.297v-2.272h15.328v2.272h-6.328v18.429h-2.703V48.247z"/>
		<path style="&st2;" d="M66.358,66.676L59.57,45.974h2.918l3.226,10.198c0.86,2.795,1.628,5.313,2.212,7.74h0.062
			c0.583-2.396,1.412-5.008,2.364-7.711l3.502-10.227h2.856l-7.402,20.702H66.358z"/>
	</g>
</g>
<g id="Satelite" style="&st7;">
	<polygon style="&st1;" points="48.577,53.313 45.043,46.579 52.266,48.084 	"/>
	<path style="&st1;" d="M70.256,8.836c2.309,30.64-31.662,69.092-54.747,72.225C31.834,73.641,63.66,35.054,70.256,8.836z"/>
	<path style="&st1;" d="M26.4,51.607c0.164-15.332,10.576-22.62,18.806-24.264C41.231,28.083,27.462,35.923,26.4,51.607z"/>
	<path style="&st1;" d="M13.509,51.297c0.236-21.976,15.159-32.422,26.954-34.778C34.768,17.579,15.032,28.815,13.509,51.297z"/>
	<path style="&st1;" d="M0,52.207C0.354,19.217,22.758,3.537,40.463,0C31.912,1.591,2.286,18.459,0,52.207z"/>
	<path style="&st1;" d="M53.447,55.998c12.283,13.373,11.689,32.381,5.596,43.533C60.787,89.799,61.115,71.166,53.447,55.998z"/>
	<circle style="&st1;" cx="44.37" cy="46.053" r="0.836"/>
</g>
<g id="Radio" style="&st7;">
	<path style="&st1;" d="M99.313,71.98c0,3.465-2.809,6.273-6.273,6.273H6.273C2.809,78.254,0,75.445,0,71.98V20.544
		c0-3.465,2.809-6.273,6.273-6.273h86.766c3.465,0,6.273,2.808,6.273,6.273V71.98z M17.787,28.386c-3.638,0-6.587,2.949-6.587,6.587
		s2.949,6.587,6.587,6.587s6.587-2.949,6.587-6.587S21.424,28.386,17.787,28.386z M17.787,52.201c-3.638,0-6.587,2.949-6.587,6.586
		c0,3.639,2.949,6.588,6.587,6.588s6.587-2.949,6.587-6.588C24.374,55.15,21.424,52.201,17.787,52.201z M65.787,20.858
		c-14.377,0-26.035,11.656-26.035,26.034c0,14.377,11.658,26.034,26.035,26.034S91.82,61.27,91.82,46.892
		C91.82,32.514,80.164,20.858,65.787,20.858z"/>
	<rect x="58.15" y="16.677" style="&st1;" width="1.061" height="59.071"/>
	<rect x="64.992" y="16.677" style="&st1;" width="1.063" height="59.071"/>
	<rect x="71.66" y="16.677" style="&st1;" width="1.061" height="59.071"/>
	<polygon style="&st1;" points="72.469,15.84 22.334,3.192 23.328,2.457 91.184,15.84 	"/>
	<circle style="&st1;" cx="21.472" cy="2.745" r="2.745"/>
</g>
<g id="Audio" style="&st7;">
	<path style="&st1;" d="M89.48,68.436c-13.02-3.427-27.41,5.39-27.41,15.715c0,5.117,5.527,10.553,14.619,9.685
		c15.854-2.193,18.451-17.771,18.457-18.091c0-4.386,0-75.744,0-75.744L27.441,5.574c0,0,0,66.47,0,68.435
		c-7.857-2.147-13.979,0.594-15.258,0.913c-1.28,0.32-13.249,6.67-12.106,15.807C1.218,98.86,11.224,99.454,12.64,99.5
		c11.558-0.183,15.715-7.629,16.538-8.726c0.822-1.096,3.734-6.898,3.746-10.553c0.012-3.655,0.183-56.739,0.183-56.739
		l56.375-4.569C89.48,18.914,89.48,65.054,89.48,68.436z"/>
</g>
</svg>
