<?xml version="1.0" encoding="utf-8"?>
<!-- Generator: Adobe Illustrator 15.0.2, SVG Export Plug-In . SVG Version: 6.00 Build 0)  -->
<!DOCTYPE svg PUBLIC "-//W3C//DTD SVG 1.1//EN" "http://www.w3.org/Graphics/SVG/1.1/DTD/svg11.dtd" [
	<!ENTITY st0 "fill:#FFFFFF;">
	<!ENTITY st1 "display:inline;fill:#00AEEF;">
	<!ENTITY st2 "display:none;">
]>
<svg version="1.1" id="Layer_1" xmlns="http://www.w3.org/2000/svg" xmlns:xlink="http://www.w3.org/1999/xlink" x="0px" y="0px"
	 width="100px" height="100px" viewBox="0 0 100 100" style="enable-background:new 0 0 100 100;" xml:space="preserve">
<g id="BG" style="&st2;">
	<rect y="0.274" style="&st1;" width="100" height="100"/>
</g>
<g id="Layer_21">
	<g>
		<g>
			<path style="&st0;" d="M89.547,40.619c0,0-9.619,0.028-15.988,0.028c-5.557,0-4.149,6.459-4.149,6.459l-51.685-0.24
				C11.2,46.866,1,45.017,1,51.538l3.57,35.647C4.57,93.711,9.859,99,16.382,99h62.454c6.523,0,11.813-5.289,11.813-11.814
				l4.017-35.646C94.664,45.017,96.068,40.619,89.547,40.619z M4.387,45.375l63.078-0.028c0,0-1.248-6.175,5.984-6.175
				c5.486,0,18.127,0.008,18.127,0.008c0-6.523-6.506-8.691-13.029-8.691L34.864,29.99c0,0,1.274-6.648-5.096-6.648
				s-21.68,0.162-21.68,0.162c-6.522,0-4.36,10.92-4.36,10.92L4.387,45.375z"/>
		</g>
	</g>
</g>
</svg>
