<?xml version="1.0" encoding="UTF-8" standalone="no"?>
<svg
   xmlns:dc="http://purl.org/dc/elements/1.1/"
   xmlns:cc="http://creativecommons.org/ns#"
   xmlns:rdf="http://www.w3.org/1999/02/22-rdf-syntax-ns#"
   xmlns:svg="http://www.w3.org/2000/svg"
   xmlns="http://www.w3.org/2000/svg"
   xmlns:sodipodi="http://sodipodi.sourceforge.net/DTD/sodipodi-0.dtd"
   xmlns:inkscape="http://www.inkscape.org/namespaces/inkscape"
   version="1.1"
   x="0px"
   y="0px"
   width="100px"
   height="100px"
   viewBox="0 0 100 100"
   enable-background="new 0 0 100 100"
   xml:space="preserve"
   id="svg2"
   inkscape:version="0.48.4 r9939"
   sodipodi:docname="gear.svg"><metadata
     id="metadata14"><rdf:RDF><cc:Work
         rdf:about=""><dc:format>image/svg+xml</dc:format><dc:type
           rdf:resource="http://purl.org/dc/dcmitype/StillImage" /></cc:Work></rdf:RDF></metadata><defs
     id="defs12" /><sodipodi:namedview
     pagecolor="#ffffff"
     bordercolor="#666666"
     borderopacity="1"
     objecttolerance="10"
     gridtolerance="10"
     guidetolerance="10"
     inkscape:pageopacity="0"
     inkscape:pageshadow="2"
     inkscape:window-width="1099"
     inkscape:window-height="764"
     id="namedview10"
     showgrid="false"
     inkscape:zoom="6.675088"
     inkscape:cx="49.666999"
     inkscape:cy="52.241552"
     inkscape:window-x="83"
     inkscape:window-y="145"
     inkscape:window-maximized="0"
     inkscape:current-layer="Your_Icon" /><g
     id="Captions" /><g
     id="Your_Icon"><path
       d="M56.452,54.774l6.297-1.147c0.017-1.813-0.124-3.616-0.415-5.388l-6.397-0.192c-0.444-2.078-1.15-4.098-2.102-6.003   l4.879-4.143c-0.879-1.571-1.896-3.064-3.042-4.47l-5.637,3.035c-1.401-1.559-3.016-2.957-4.829-4.149l2.15-6.025   c-0.769-0.457-1.562-0.889-2.386-1.284c-0.82-0.395-1.646-0.741-2.479-1.059l-3.365,5.447c-2.062-0.673-4.163-1.065-6.258-1.189   l-1.149-6.296c-1.813-0.02-3.614,0.12-5.385,0.411l-0.193,6.397c-2.081,0.444-4.101,1.15-6.008,2.104l-4.146-4.878   c-1.565,0.882-3.059,1.898-4.46,3.042l3.032,5.633c-1.559,1.401-2.961,3.022-4.153,4.836C8.22,38.676,6.158,37.94,4.38,37.304   c-0.454,0.774-0.885,1.562-1.28,2.382s-0.742,1.649-1.062,2.486c1.607,0.993,3.466,2.144,5.443,3.365   c-0.67,2.062-1.062,4.166-1.187,6.261l-6.293,1.149c-0.02,1.811,0.121,3.61,0.412,5.385l6.397,0.189   c0.447,2.085,1.156,4.107,2.107,6.009L4.04,68.674c0.883,1.568,1.896,3.062,3.046,4.466l5.63-3.035   c1.408,1.559,3.025,2.957,4.835,4.149l-2.146,6.025c0.765,0.451,1.556,0.882,2.376,1.274c0.823,0.398,1.653,0.748,2.492,1.062   l3.366-5.44c2.058,0.67,4.159,1.062,6.25,1.184l1.15,6.296c1.813,0.02,3.613-0.124,5.388-0.412l0.196-6.4   c2.078-0.444,4.094-1.15,5.999-2.104l4.143,4.875c1.568-0.875,3.062-1.892,4.467-3.035l-3.032-5.64   c1.556-1.401,2.95-3.016,4.143-4.829l6.025,2.153c0.454-0.771,0.889-1.565,1.284-2.385c0.392-0.817,0.738-1.65,1.059-2.487   l-5.443-3.365C55.937,58.966,56.328,56.868,56.452,54.774z M42.814,58.783c-3.039,6.319-10.622,8.979-16.941,5.937   c-6.319-3.035-8.979-10.619-5.937-16.938c3.038-6.319,10.622-8.979,16.938-5.94C43.193,44.881,45.854,52.464,42.814,58.783z"
       id="path6" /><path
       d="M93.942,35.007L100,32c-0.379-1.686-0.954-3.326-1.715-4.878l-6.61,1.435c-0.921-1.467-2.095-2.794-3.493-3.901l2.16-6.407   c-0.722-0.457-1.474-0.886-2.261-1.265c-0.791-0.379-1.592-0.699-2.401-0.977l-3.66,5.685c-1.738-0.398-3.506-0.489-5.228-0.29   l-3.006-6.058c-1.687,0.375-3.326,0.95-4.878,1.708l1.434,6.607c-1.47,0.918-2.803,2.091-3.917,3.492   c-2.255-0.761-4.474-1.506-6.407-2.159c-0.461,0.725-0.893,1.479-1.271,2.277c-0.379,0.78-0.695,1.574-0.974,2.378   c1.716,1.102,3.689,2.373,5.688,3.656c-0.408,1.748-0.496,3.522-0.297,5.254c-2.131,1.056-4.231,2.098-6.062,3.007   c0.376,1.683,0.948,3.319,1.706,4.871c1.996-0.435,4.283-0.931,6.606-1.435c0.925,1.48,2.104,2.816,3.516,3.935l-2.163,6.403   c0.723,0.458,1.471,0.883,2.265,1.262c0.784,0.379,1.584,0.699,2.389,0.98c1.104-1.716,2.368-3.689,3.659-5.692   c1.751,0.409,3.532,0.494,5.267,0.294l3,6.055c1.686-0.379,3.322-0.95,4.875-1.712c-0.435-1.993-0.932-4.283-1.435-6.61   c1.47-0.921,2.803-2.101,3.917-3.509l6.408,2.156c0.454-0.715,0.875-1.46,1.251-2.244c0.379-0.794,0.706-1.602,0.983-2.411   l-5.688-3.663C94.057,38.503,94.146,36.729,93.942,35.007z M85.052,39.917c-1.729,3.588-6.034,5.098-9.619,3.372   c-3.588-1.725-5.097-6.031-3.372-9.619c1.723-3.588,6.032-5.097,9.619-3.372C85.265,32.021,86.773,36.33,85.052,39.917z"
       id="path8" /><path
       style="fill:#ffffff;fill-opacity:1;stroke:#939393;stroke-width:0.14981075999999999;stroke-opacity:1"
       d="m 81.894816,55.076289 -1.488596,-2.989141 -1.130099,0.08702 c -0.97083,0.07475 -2.987796,-0.09123 -3.976502,-0.327234 -0.250862,-0.05988 -0.59217,0.390885 -2.09735,2.769982 -1.520949,2.404021 -1.84386,2.829136 -2.097351,2.761175 -0.164792,-0.04418 -1.186605,-0.515732 -2.270697,-1.047891 l -1.971076,-0.967565 1.066291,-3.206496 1.06629,-3.206494 -1.227058,-1.232012 C 67.093786,47.040027 66.294017,46.12613 65.991405,45.68675 65.55362,45.051106 65.377008,44.903974 65.127033,44.96666 c -0.172792,0.04333 -1.649368,0.369049 -3.28128,0.723821 l -2.967113,0.64504 -0.273326,-0.539454 c -0.31199,-0.615761 -1.132415,-2.997726 -1.280226,-3.716921 l -0.09883,-0.480875 3.021207,-1.512043 3.021207,-1.512043 -0.09947,-1.003298 c -0.08674,-0.874897 0.08603,-3.093339 0.312179,-4.008413 0.06367,-0.257641 -0.19084,-0.479099 -1.543293,-1.342857 -0.890747,-0.568884 -2.170614,-1.391635 -2.844149,-1.828335 l -1.224609,-0.794001 0.376342,-0.934263 c 0.579478,-1.438547 1.738653,-3.571601 1.914969,-3.52383 0.08685,0.02353 1.52691,0.504723 3.200135,1.069314 l 3.042229,1.02653 1.067087,-1.084148 c 0.586897,-0.596282 1.476291,-1.384809 1.976431,-1.752284 0.50014,-0.367474 0.925501,-0.68354 0.945247,-0.702369 0.01975,-0.01883 -0.266767,-1.424823 -0.636696,-3.124434 -0.369928,-1.69961 -0.672597,-3.188379 -0.672597,-3.308376 0,-0.324992 3.645895,-1.744243 4.480765,-1.744243 0.182913,0 0.658518,0.839935 1.690742,2.985896 l 1.436237,2.985895 1.10243,-0.0818 c 0.989223,-0.0734 3.548728,0.136859 4.061542,0.333645 0.131784,0.05057 0.808255,-0.873759 1.981039,-2.706893 0.979505,-1.531027 1.829825,-2.813912 1.889599,-2.850855 0.246656,-0.152441 4.480482,1.879215 4.481267,2.150393 1.5e-4,0.05776 -0.481122,1.504218 -1.06953,3.214342 l -1.069835,3.109316 0.993743,0.910586 c 0.54656,0.500823 1.340484,1.376881 1.764278,1.946797 0.424165,0.570416 0.884566,1.036211 1.024211,1.036211 0.19725,0 4.101056,-0.814937 6.08966,-1.271244 0.273693,-0.0628 0.381618,0.08068 0.786863,1.046092 0.258314,0.615382 0.631784,1.676206 0.829929,2.357386 l 0.360268,1.238508 -2.981313,1.498322 -2.981314,1.498323 -0.06218,2.097135 c -0.0342,1.153425 -0.109181,2.370525 -0.166623,2.704667 l -0.104437,0.607529 2.785996,1.789443 c 1.532299,0.984193 2.785767,1.856857 2.785484,1.939253 -8.99e-4,0.248211 -0.957968,2.361413 -1.54487,3.41089 l -0.549549,0.982686 -3.214028,-1.068796 -3.214028,-1.068795 -0.824924,0.911571 c -0.453708,0.501365 -1.33316,1.300848 -1.954337,1.776632 -0.621177,0.475782 -1.129413,0.94199 -1.129413,1.036016 0,0.09403 0.303367,1.548947 0.674149,3.233157 0.370781,1.68421 0.674148,3.105242 0.674148,3.157848 0,0.201542 -4.008579,1.636097 -4.571745,1.636097 -0.08431,0 -0.82315,-1.345114 -1.641878,-2.98914 l 0,0 z M 80.824881,43.650363 c 3.330948,-1.023062 5.443374,-4.477861 4.886275,-7.99133 -0.56097,-3.53787 -3.516245,-6.087042 -7.045102,-6.076988 -2.084126,0.0059 -3.63798,0.5981 -5.117391,1.950198 -2.30316,2.104959 -2.905463,5.904049 -1.380285,8.706303 1.703513,3.129915 5.150728,4.488578 8.656503,3.411817 l 0,0 z"
       id="path2991"
       inkscape:connector-curvature="0" /><path
       style="fill:#ffffff;fill-opacity:1;stroke:#939393;stroke-width:0.14981076;stroke-opacity:1"
       d="m 30.836373,83.121278 c -0.14627,-0.80336 -0.404652,-2.211538 -0.574179,-3.129284 l -0.308233,-1.66863 -1.446703,-0.17694 c -1.215377,-0.148647 -4.116082,-0.760459 -4.739269,-0.999599 -0.104394,-0.04006 -0.854886,1.028154 -1.804227,2.568047 -0.894015,1.450152 -1.673113,2.666077 -1.73133,2.702057 -0.247271,0.152822 -4.631973,-2.004456 -4.632234,-2.279065 -9.1e-5,-0.09595 0.43803,-1.399449 0.973604,-2.896658 0.535573,-1.497209 0.973735,-2.800705 0.973692,-2.896659 -4.3e-5,-0.09595 -0.589923,-0.623621 -1.310844,-1.172595 -0.720921,-0.548973 -1.78267,-1.475818 -2.359442,-2.059653 -0.576771,-0.583836 -1.096716,-1.061629 -1.155433,-1.061764 -0.09563,-1.5e-4 -1.301127,0.638449 -4.5474334,2.409206 L 7.1156083,73.037248 6.2131622,71.805937 C 4.939035,70.0675 4.1396514,68.713897 4.3021703,68.570038 4.3774985,68.503358 5.3829382,67.652427 6.5364811,66.679081 7.6900239,65.705734 8.7174177,64.834023 8.8195785,64.741944 8.9651908,64.610703 8.8617649,64.235475 8.3409115,63.00535 7.9754838,62.142301 7.4950221,60.79573 7.2732188,60.012969 7.0514154,59.230207 6.8400589,58.556059 6.8035376,58.514861 6.7670165,58.473663 5.3624613,58.402546 3.6823042,58.356824 2.002147,58.311102 0.59647007,58.242691 0.55857766,58.204798 0.45528771,58.101508 0.19287399,55.769288 0.12000723,54.306975 L 0.05589744,53.020397 3.1871624,52.447148 c 2.8260655,-0.517376 3.1369601,-0.603702 3.1896955,-0.88568 0.032137,-0.171836 0.1276149,-0.89387 0.2121738,-1.60452 0.084559,-0.710649 0.3340456,-2.012 0.5544152,-2.891891 C 7.3638162,46.185166 7.5196446,45.447156 7.489732,45.425035 7.4598196,45.402913 6.2463364,44.653173 4.7931029,43.758946 L 2.1508601,42.133078 2.6684961,40.923345 C 2.9531959,40.257992 3.4645345,39.198028 3.804804,38.56787 l 0.6186718,-1.145741 2.105178,0.748432 c 3.3702836,1.198202 3.7192872,1.318334 3.8299782,1.318334 0.05768,0 0.581849,-0.623588 1.16481,-1.38575 0.582961,-0.762162 1.502726,-1.821998 2.043922,-2.355192 0.541196,-0.533193 0.983993,-1.056565 0.983993,-1.16305 0,-0.106485 -0.640441,-1.376788 -1.423203,-2.822896 -0.782761,-1.446109 -1.421237,-2.675522 -1.418835,-2.73203 0.006,-0.142263 1.60079,-1.298901 3.046863,-2.209831 l 1.20456,-0.758794 2.068906,2.433818 2.068906,2.433817 0.934217,-0.42258 c 1.249729,-0.565297 3.28664,-1.274531 4.324786,-1.505852 l 0.843787,-0.188014 0.108662,-3.187782 c 0.105262,-3.087995 0.11871,-3.190425 0.429606,-3.272198 0.523137,-0.137597 4.749536,-0.432286 4.844065,-0.337757 0.0478,0.0478 0.334077,1.452419 0.636178,3.121385 l 0.549276,3.034482 0.516454,0.103005 c 0.28405,0.05665 1.087278,0.182043 1.784951,0.278645 0.697674,0.0966 1.905497,0.341147 2.684053,0.543433 1.128696,0.29326 1.440952,0.32863 1.540882,0.174542 0.06893,-0.106287 0.811018,-1.305594 1.649088,-2.665127 0.838069,-1.359532 1.536074,-2.490308 1.551123,-2.512835 0.09651,-0.144472 4.71442,2.101024 4.71442,2.292425 0,0.03202 -0.472875,1.385863 -1.050834,3.008532 -0.577958,1.622669 -1.033008,2.962049 -1.011223,2.976399 0.826776,0.544588 2.699781,2.064904 3.63766,2.952687 0.67999,0.643666 1.273477,1.170302 1.318862,1.170302 0.04538,0 1.265696,-0.640441 2.711804,-1.423202 1.446109,-0.782761 2.691231,-1.423202 2.766936,-1.423202 0.165764,0 1.35926,1.601992 2.336293,3.135931 0.591758,0.92906 0.673491,1.139972 0.493465,1.273392 -0.705985,0.523216 -4.61129,3.90681 -4.61129,3.995266 0,0.05868 0.191451,0.534321 0.425448,1.056976 0.429374,0.959053 1.217714,3.258802 1.519737,4.433383 l 0.163715,0.636696 1.754501,7.49e-4 c 0.964976,4.49e-4 2.400758,0.04358 3.190626,0.09589 l 1.436124,0.09511 0.175193,1.514578 c 0.09636,0.833017 0.174811,2.000279 0.174342,2.593917 l -8.99e-4,1.079338 -0.56179,0.107386 c -0.308985,0.05906 -1.703094,0.315088 -3.098021,0.568945 l -2.53623,0.46156 -0.264462,1.837185 c -0.145455,1.010452 -0.430786,2.44575 -0.634071,3.189551 l -0.369609,1.352368 0.548613,0.342173 c 0.301737,0.188196 1.509275,0.934686 2.683416,1.658868 1.174142,0.724183 2.134804,1.365034 2.134804,1.424115 0,0.322829 -1.983568,4.414638 -2.205979,4.550613 -0.06385,0.03903 -1.421469,-0.394145 -3.016932,-0.962623 -1.595465,-0.568478 -2.943762,-1.030675 -2.996215,-1.027105 -0.05246,0.0036 -0.432446,0.487878 -0.844425,1.076242 -0.41198,0.588363 -1.340955,1.691564 -2.064389,2.451557 l -1.315336,1.381805 0.920464,1.699201 c 0.506256,0.934562 1.184214,2.182644 1.506572,2.773517 l 0.586108,1.074316 -0.865385,0.66551 c -0.475962,0.366031 -1.447322,1.040768 -2.158578,1.499417 l -1.293192,0.833905 -2.002645,-2.37883 C 43.691826,76.82882 42.733352,75.75491 42.663338,75.75071 c -0.07002,-0.0042 -0.887861,0.296652 -1.817435,0.668565 -0.929574,0.371912 -2.262042,0.824047 -2.96104,1.004746 l -1.270904,0.328541 -0.09514,1.340336 c -0.05228,0.73721 -0.09509,2.171405 -0.09509,3.187126 0,1.793977 -0.0096,1.848822 -0.337074,1.918702 -0.600188,0.128086 -3.397756,0.383205 -4.202139,0.383205 l -0.782194,0 -0.265947,-1.460655 0,0 z m 3.789625,-17.490084 c 3.628523,-0.965779 6.684034,-3.540807 8.321341,-7.0128 0.776331,-1.646253 0.997017,-2.650637 1.076088,-4.897477 0.05994,-1.703211 0.02163,-2.230572 -0.242728,-3.340982 -1.446064,-6.074162 -6.893042,-10.150641 -13.091759,-9.797778 -2.002376,0.113986 -3.151895,0.417678 -4.976682,1.314791 -6.456006,3.173943 -8.937176,10.881385 -5.595044,17.380291 1.668732,3.244913 4.874417,5.665904 8.591259,6.488274 1.370206,0.303166 4.544565,0.231112 5.917525,-0.134319 z"
       id="path2993"
       inkscape:connector-curvature="0" /></g></svg>