<?xml version="1.0" encoding="utf-8"?>
<!-- Generator: Adobe Illustrator 15.0.2, SVG Export Plug-In . SVG Version: 6.00 Build 0)  -->
<!DOCTYPE svg PUBLIC "-//W3C//DTD SVG 1.1//EN" "http://www.w3.org/Graphics/SVG/1.1/DTD/svg11.dtd">
<svg version="1.1" id="Layer_23" xmlns="http://www.w3.org/2000/svg" xmlns:xlink="http://www.w3.org/1999/xlink" x="0px" y="0px"
	 width="100px" height="100px" viewBox="0 0 100 100" style="enable-background:new 0 0 100 100;" xml:space="preserve">
<g>
	<g>
		<path style="fill-rule:evenodd;clip-rule:evenodd;fill:#FFFFFF;" d="M17.111,48.875h26.592c1.98,0,3.584-1.605,3.584-3.586V18.698
			c0-1.98-1.604-3.585-3.584-3.585H17.111c-1.98,0-3.585,1.605-3.585,3.585v26.591C13.526,47.27,15.131,48.875,17.111,48.875z
			 M82.714,15.284h-26.59c-1.98,0-3.587,1.605-3.587,3.585v26.59c0,1.98,1.606,3.586,3.587,3.586h26.59
			c1.98,0,3.586-1.606,3.586-3.586v-26.59C86.3,16.889,84.694,15.284,82.714,15.284z M43.873,54.124h-26.59
			c-1.98,0-3.585,1.606-3.585,3.587v26.59c0,1.98,1.605,3.586,3.585,3.586h26.59c1.98,0,3.586-1.605,3.586-3.586v-26.59
			C47.459,55.73,45.853,54.124,43.873,54.124z M82.714,54.124h-26.59c-1.98,0-3.587,1.606-3.587,3.587v26.59
			c0,1.98,1.606,3.586,3.587,3.586h26.59c1.98,0,3.586-1.605,3.586-3.586v-26.59C86.3,55.73,84.694,54.124,82.714,54.124z"/>
	</g>
</g>
</svg>
