<?xml version="1.0" encoding="utf-8"?>
<!-- Generator: Adobe Illustrator 15.0.2, SVG Export Plug-In . SVG Version: 6.00 Build 0)  -->
<!DOCTYPE svg PUBLIC "-//W3C//DTD SVG 1.1//EN" "http://www.w3.org/Graphics/SVG/1.1/DTD/svg11.dtd" [
	<!ENTITY st0 "display:inline;opacity:0.22;">
	<!ENTITY st1 "display:inline;opacity:0.96;">
	<!ENTITY st2 "display:none;fill:url(#SVGID_8_);">
	<!ENTITY st3 "display:none;fill:url(#SVGID_9_);">
	<!ENTITY st4 "fill:#BCBEC0;">
	<!ENTITY st5 "display:inline;fill:url(#SVGID_14_);">
	<!ENTITY st6 "display:inline;fill:#FFFFFF;">
	<!ENTITY st7 "fill:url(#SVGID_4_);">
	<!ENTITY st8 "fill:url(#SVGID_5_);">
	<!ENTITY st9 "fill:url(#SVGID_6_);">
	<!ENTITY st10 "fill:url(#SVGID_7_);">
	<!ENTITY st11 "display:inline;opacity:0.62;fill-rule:evenodd;clip-rule:evenodd;fill:url(#SVGID_11_);">
	<!ENTITY st12 "fill:#FFFFFF;">
	<!ENTITY st13 "fill:none;">
	<!ENTITY st14 "display:inline;">
	<!ENTITY st15 "display:inline;fill:#00AEEF;">
	<!ENTITY st16 "fill-rule:evenodd;clip-rule:evenodd;fill:#FFFFFF;">
	<!ENTITY st17 "display:inline;fill:#A7A9AC;">
	<!ENTITY st18 "display:none;">
	<!ENTITY st19 "fill-rule:evenodd;clip-rule:evenodd;fill:url(#SVGID_10_);">
	<!ENTITY st20 "fill-rule:evenodd;clip-rule:evenodd;fill:url(#SVGID_12_);">
	<!ENTITY st21 "fill-rule:evenodd;clip-rule:evenodd;fill:url(#SVGID_13_);">
	<!ENTITY st22 "fill-rule:evenodd;clip-rule:evenodd;fill:url(#SVGID_1_);">
	<!ENTITY st23 "fill-rule:evenodd;clip-rule:evenodd;fill:url(#SVGID_2_);">
	<!ENTITY st24 "fill-rule:evenodd;clip-rule:evenodd;fill:url(#SVGID_3_);">
	<!ENTITY st25 "fill:#414042;">
]>
<svg version="1.1" xmlns="http://www.w3.org/2000/svg" xmlns:xlink="http://www.w3.org/1999/xlink" x="0px" y="0px" width="100px"
	 height="100px" viewBox="0 0 100 100" style="enable-background:new 0 0 100 100;" xml:space="preserve">
<g id="BG" style="&st18;">
	<rect y="0.274" style="&st15;" width="100" height="100"/>
</g>
<g id="Layer_14" style="&st18;">
	<g id="Layer_15">
	</g>
	<g id="Layer_16" style="&st1;">
		<linearGradient id="SVGID_1_" gradientUnits="userSpaceOnUse" x1="19.75" y1="44.457" x2="84.535" y2="89.82">
			<stop  offset="0" style="stop-color:#ADADAD"/>
			<stop  offset="0.8909" style="stop-color:#575757"/>
			<stop  offset="1" style="stop-color:#696969"/>
		</linearGradient>
		<path style="&st22;" d="M54.175,18.509c-2.953-2.953-6.331-1.853-8.019,0.174L14,52.667V87.5c0,3.313,2.687,6,6,6h58.834
			c3.313,0,6-2.687,6-6V52.334L54.175,18.509z"/>
		<linearGradient id="SVGID_2_" gradientUnits="userSpaceOnUse" x1="23.002" y1="21.23" x2="89.0501" y2="67.4774">
			<stop  offset="0" style="stop-color:#ADADAD"/>
			<stop  offset="1" style="stop-color:#494949"/>
		</linearGradient>
		<path style="&st23;" d="M96.125,55.1c-0.543-0.555-42.656-43.631-43.563-44.537s-3.464-0.966-4.5,0.063S5.188,53.188,3.875,54.5
			s-4.459-0.445-2.362-2.48C3.609,49.984,45.404,9.348,47.171,7.736s5.684-1.092,6.517-0.268S66.938,20.375,67.375,20.5
			s0.438-2.353,0.375-3.801s0.688-2.072,1.688-2.077s11.75-0.06,12.688,0.003c1.25,0,1.493,0.833,1.5,2.074
			s0.121,21.052,0.121,21.052s12.504,12.5,14.379,14.375S96.668,55.654,96.125,55.1z"/>
	</g>
	<g id="Layer_17" style="&st14;">
		<linearGradient id="SVGID_3_" gradientUnits="userSpaceOnUse" x1="34.7505" y1="60.7461" x2="65.0665" y2="94.4155">
			<stop  offset="0" style="stop-color:#DEDEDE"/>
			<stop  offset="0.5879" style="stop-color:#ADADAD"/>
			<stop  offset="1" style="stop-color:#6B6B6B"/>
		</linearGradient>
		<path style="&st24;" d="M66.083,87.5c0,3.313,0,6,0,6H33.917c0,0,0-2.687,0-6V64.167c0-3.313,2.687-6,6-6h20.167
			c3.313,0,6,2.687,6,6V87.5z"/>
	</g>
</g>
<g id="Layer_13">
	<path style="&st16;" d="M49.322,0.935c16.01,0,28.648,13.388,28.648,30.184c0,3.617,0.003,10.304,0.003,10.304l-56.67,0.074
		c0,0-0.172-6.59-0.172-10.15C21.13,14.551,33.311,0.935,49.322,0.935z M49.568,8.004c12.489,0,22.346,10.556,22.346,23.8
		c0,2.852,0.003,8.124,0.003,8.124l-44.206,0.058c0,0-0.133-5.196-0.133-8.002C27.578,18.74,37.079,8.004,49.568,8.004z"/>
	<path style="&st16;" d="M18.119,39.944h63.762c2.699,0,4.887,2.188,4.887,4.886v49.348c0,2.699-2.188,4.886-4.887,4.886H18.119
		c-2.699,0-4.886-2.187-4.886-4.886V44.831C13.233,42.132,15.42,39.944,18.119,39.944z M21.937,43.484h56.127
		c2.376,0,4.302,1.925,4.302,4.301v43.439c0,2.374-1.926,4.3-4.302,4.3H21.937c-2.375,0-4.3-1.926-4.3-4.3V47.785
		C17.636,45.41,19.562,43.484,21.937,43.484z"/>
	<path style="&st16;" d="M26.438,47.658h47.125c1.994,0,3.611,1.617,3.611,3.611V87.74c0,1.995-1.617,3.611-3.611,3.611H26.438
		c-1.995,0-3.611-1.616-3.611-3.611V51.269C22.827,49.275,24.443,47.658,26.438,47.658z M44.45,56.237
		c-2.653,2.653-4.101,9.363,1.366,12.894c1.757,0.374-1.169,13.336,0.716,14.827c1.961,1.552,4.794,1.233,7.167,0.167
		c2.875-1.292-0.75-15.167,1.37-15.336c1.366,0,5.162-5.414,1.972-10.997C53.852,52.211,47.104,53.584,44.45,56.237z"/>
</g>
<g id="Layer_10" style="&st18;">
	<g id="Layer_11" style="&st14;">
		<linearGradient id="SVGID_4_" gradientUnits="userSpaceOnUse" x1="14.7417" y1="-3.3081" x2="51.6502" y2="75.8425">
			<stop  offset="0" style="stop-color:#5C5C5C"/>
			<stop  offset="1" style="stop-color:#373737"/>
		</linearGradient>
		<path style="&st7;" d="M66.141,63.829c0,4.582-3.772,8.3-8.426,8.3H8.674c-4.652,0-8.424-3.718-8.424-8.3V8.704
			c0-4.583,3.772-8.298,8.424-8.298h49.041c4.653,0,8.426,3.714,8.426,8.298V63.829z"/>
		<linearGradient id="SVGID_5_" gradientUnits="userSpaceOnUse" x1="32.1074" y1="67.4014" x2="34.282" y2="5.1298">
			<stop  offset="0" style="stop-color:#5C5C5C"/>
			<stop  offset="1" style="stop-color:#A9A9A9"/>
		</linearGradient>
		<path style="&st8;" d="M61.162,59.664c0,3.891-3.201,7.044-7.151,7.044H12.378c-3.951,0-7.151-3.153-7.151-7.044V12.867
			c0-3.891,3.201-7.044,7.151-7.044h41.632c3.95,0,7.151,3.153,7.151,7.044V59.664z"/>
		<g>
			<path style="&st25;" d="M16.401,23.408h26.756v37.459H16.401V23.408z M19.077,55.783l9.097-13.646l-9.097-13.646V55.783z
				 M38.876,26.084H20.683l9.097,13.646L38.876,26.084z M38.876,58.191l-9.097-13.646l-9.097,13.646H38.876z M40.482,55.783V28.492
				l-9.097,13.646L40.482,55.783z"/>
		</g>
		<linearGradient id="SVGID_6_" gradientUnits="userSpaceOnUse" x1="36.2998" y1="7.3438" x2="81.3091" y2="103.8664">
			<stop  offset="0" style="stop-color:#5C5C5C"/>
			<stop  offset="1" style="stop-color:#373737"/>
		</linearGradient>
		<path style="&st9;" d="M98.98,89.218c0,5.587-4.602,10.12-10.274,10.12H28.9c-5.674,0-10.272-4.533-10.272-10.12V21.993
			c0-5.589,4.599-10.12,10.272-10.12h59.806c5.673,0,10.274,4.53,10.274,10.12V89.218z"/>
		<linearGradient id="SVGID_7_" gradientUnits="userSpaceOnUse" x1="57.4775" y1="93.5752" x2="60.1295" y2="17.6337">
			<stop  offset="0" style="stop-color:#5C5C5C"/>
			<stop  offset="1" style="stop-color:#A9A9A9"/>
		</linearGradient>
		<path style="&st10;" d="M92.91,84.141c0,4.745-3.905,8.589-8.721,8.589H33.418c-4.817,0-8.721-3.844-8.721-8.589V27.07
			c0-4.746,3.904-8.591,8.721-8.591h50.771c4.815,0,8.721,3.845,8.721,8.591V84.141z"/>
		<linearGradient id="SVGID_8_" gradientUnits="userSpaceOnUse" x1="54.7051" y1="32.7373" x2="87.1253" y2="102.2628">
			<stop  offset="0" style="stop-color:#1A79A1"/>
			<stop  offset="1" style="stop-color:#01334C"/>
		</linearGradient>
		<path style="&st2;" d="M99.854,91.711c0,4.025-3.313,7.289-7.4,7.289H49.376c-4.087,0-7.399-3.264-7.399-7.289V43.289
			c0-4.026,3.313-7.289,7.399-7.289h43.078c4.087,0,7.4,3.263,7.4,7.289V91.711z"/>
		<linearGradient id="SVGID_9_" gradientUnits="userSpaceOnUse" x1="59.6074" y1="36.4312" x2="82.2235" y2="98.5683">
			<stop  offset="0" style="stop-color:#7EB1C8"/>
			<stop  offset="1" style="stop-color:#004D71"/>
		</linearGradient>
		<path style="&st3;" d="M96.482,88.891c0,3.557-2.927,6.439-6.538,6.439H51.886c-3.611,0-6.537-2.883-6.537-6.439V46.11
			c0-3.557,2.926-6.44,6.537-6.44h38.059c3.611,0,6.538,2.883,6.538,6.44V88.891z"/>
		<g>
			<path style="&st4;" d="M46.892,66.561L41.061,84.22h-7.497l19.158-56.143h8.663L80.544,84.22h-7.746L66.8,66.561H46.892z
				 M65.384,60.896l-5.581-16.16c-1.249-3.666-2.082-6.997-2.915-10.246h-0.167c-0.833,3.249-1.665,6.747-2.832,10.162
				l-5.497,16.243H65.384z"/>
		</g>
		<g id="Layer_12" style="&st18;">
			<path style="&st17;" d="M6.458,66.782C6.511,84.751,21.146,83.97,21.146,83.97v5.104l12.188-9.167L21.25,70.74v5.417
				c0,0-7.569,0.208-6.875-9.375h5.938L10.208,55.531L0,66.782H6.458z"/>
		</g>
	</g>
</g>
<g id="Layer_7" style="&st18;">
	<g style="&st14;">
		<g>
			<linearGradient id="SVGID_10_" gradientUnits="userSpaceOnUse" x1="7.1279" y1="13.2056" x2="100.8319" y2="86.4152">
				<stop  offset="0" style="stop-color:#ADADAD"/>
				<stop  offset="1" style="stop-color:#494949"/>
			</linearGradient>
			<path style="&st19;" d="M65.615,33.347c0-18.066-14.645-32.71-32.709-32.71c-18.066,0-32.711,14.644-32.711,32.71
				c0,18.064,14.645,32.708,32.711,32.708C50.97,66.055,65.615,51.411,65.615,33.347z M32.906,55.618
				c-12.303,0-22.274-9.974-22.274-22.276c0-12.3,9.972-22.272,22.274-22.272c12.3,0,22.272,9.972,22.272,22.272
				C55.179,45.645,45.207,55.618,32.906,55.618z M95.119,84.376L66.775,57.377c-2.553-2.429-6.591-2.331-9.021,0.221l-1.223,1.283
				c-2.433,2.552-2.334,6.589,0.218,9.02l28.345,26.999c2.551,2.431,6.592,2.333,9.021-0.219l1.222-1.284
				C97.769,90.847,97.671,86.807,95.119,84.376z"/>
		</g>
	</g>
	<linearGradient id="SVGID_11_" gradientUnits="userSpaceOnUse" x1="15.6719" y1="19.3901" x2="50.1395" y2="47.3015">
		<stop  offset="0" style="stop-color:#ADADAD"/>
		<stop  offset="1" style="stop-color:#8A8A8A"/>
	</linearGradient>
	<path style="&st11;" d="M32.905,11.17c12.247,0,22.175,9.928,22.175,22.176c0,12.246-9.928,22.175-22.175,22.175
		c-12.246,0-22.175-9.93-22.175-22.175C10.73,21.099,20.659,11.17,32.905,11.17z"/>
	<g style="&st0;">
		<g>
			<path style="&st16;" d="M46.178,15.609c-3.765-2.93-8.494-4.68-13.635-4.68c-12.277,0-22.229,9.953-22.229,22.228
				c0,2.018,0.273,3.97,0.777,5.828c0.442,0.016,0.885,0.034,1.332,0.034C27.882,39.019,41.062,29.283,46.178,15.609z"/>
		</g>
	</g>
</g>
<g id="Layer_8" style="&st18;">
	<g style="&st14;">
		<g>
			<linearGradient id="SVGID_12_" gradientUnits="userSpaceOnUse" x1="19.856" y1="50.2744" x2="99.043" y2="50.2744">
				<stop  offset="0" style="stop-color:#ADADAD"/>
				<stop  offset="1" style="stop-color:#8A8A8A"/>
			</linearGradient>
			<path style="&st20;" d="M24.601,34.638h52.233c2.621,0,4.746-2.657,4.746-5.935v-1.961c0-3.278-2.125-5.935-4.746-5.935H24.601
				c-2.62,0-4.744,2.657-4.744,5.935v1.961C19.857,31.981,21.981,34.638,24.601,34.638z M92.955,42.765H25.943
				c-3.361,0-6.087,2.657-6.087,5.935v1.961c0,3.277,2.726,5.933,6.087,5.933h67.012c3.363,0,6.088-2.656,6.088-5.933V48.7
				C99.043,45.422,96.318,42.765,92.955,42.765z M86.891,65.909H25.438c-3.082,0-5.582,2.658-5.582,5.936v1.963
				c0,3.276,2.5,5.935,5.582,5.935h61.453c3.084,0,5.582-2.658,5.582-5.935v-1.963C92.473,68.567,89.975,65.909,86.891,65.909z"/>
		</g>
	</g>
	<g style="&st14;">
		<g>
			<linearGradient id="SVGID_13_" gradientUnits="userSpaceOnUse" x1="0.957" y1="50.2744" x2="14.0688" y2="50.2744">
				<stop  offset="0" style="stop-color:#ADADAD"/>
				<stop  offset="1" style="stop-color:#8A8A8A"/>
			</linearGradient>
			<path style="&st21;" d="M7.513,43.126c-3.62,0-6.556,2.932-6.556,6.554s2.936,6.556,6.556,6.556c3.621,0,6.556-2.935,6.556-6.556
				S11.133,43.126,7.513,43.126z M7.513,34.278c3.621,0,6.556-2.937,6.556-6.557c0-3.62-2.936-6.555-6.556-6.555
				c-3.62,0-6.556,2.935-6.556,6.555C0.957,31.342,3.893,34.278,7.513,34.278z M7.513,66.272c-3.62,0-6.556,2.935-6.556,6.554
				c0,3.621,2.936,6.556,6.556,6.556c3.621,0,6.556-2.935,6.556-6.556C14.069,69.207,11.133,66.272,7.513,66.272z"/>
		</g>
	</g>
</g>
<g id="Layer_9" style="&st18;">
	<linearGradient id="SVGID_14_" gradientUnits="userSpaceOnUse" x1="33.0884" y1="11.606" x2="73.623" y2="98.5327">
		<stop  offset="0" style="stop-color:#ADADAD"/>
		<stop  offset="1" style="stop-color:#494949"/>
	</linearGradient>
	<path style="&st5;" d="M79.538,95.758c-1.007,0.742-4.007-1.164-4.007-1.164L53.5,81.281c0,0-2.183-1.471-3.708-1.399
		s-4.151,1.524-4.151,1.524L24.531,93.938c0,0-3.454,2.285-4.68,1.455s-0.31-5.463-0.31-5.463l6.271-24.648
		c0,0,0.381-1.709-0.06-3.089S24,59.438,24,59.438L3.797,42.328c0,0-2.2-1.714-2.045-2.818s4.03-1.385,4.03-1.385l23-2.281
		c0,0,5.416-0.361,6.364-0.978s2.761-4.366,2.761-4.366L48.208,6.104c0,0,0.703-2.393,2.049-2.384s1.692,1.853,1.847,2.175
		S62.75,30.625,62.75,30.625s1.18,2.717,2.246,3.421s3.379,1.079,3.379,1.079l25.032,2.094c0,0,4.505,0.023,4.924,1.881
		s-3.408,4.514-3.408,4.514L75.604,59.376c0,0-1.263,1.113-1.559,2.108s-0.004,2.329-0.004,2.329s5.529,26.844,5.614,27.312
		S80.545,95.016,79.538,95.758z"/>
</g>
<g id="movie_clap" style="&st18;">
	<path style="&st6;" d="M92.209,95.469c0,2.109-1.883,3.82-4.203,3.82H5.517c-2.322,0-4.204-1.711-4.204-3.82V44.723
		c0-2.111-0.22-2.285,2.102-2.285h86.692c2.321,0,2.103-0.338,2.103,1.773V95.469z M83.538,59.629c0-0.426-0.424-0.771-0.948-0.771
		H12.455c-0.523,0-0.948,0.346-0.948,0.771l0,0c0,0.426,0.425,0.771,0.948,0.771H82.59C83.114,60.4,83.538,60.055,83.538,59.629
		L83.538,59.629z M83.538,82.756c0-0.426-0.424-0.771-0.948-0.771H12.455c-0.523,0-0.948,0.346-0.948,0.771l0,0
		c0,0.426,0.425,0.77,0.948,0.77H82.59C83.114,83.525,83.538,83.182,83.538,82.756L83.538,82.756z M83.538,71.191
		c0-0.426-0.424-0.77-0.948-0.77H12.455c-0.523,0-0.948,0.344-0.948,0.77l0,0c0,0.426,0.425,0.771,0.948,0.771H82.59
		C83.114,71.963,83.538,71.617,83.538,71.191L83.538,71.191z"/>
	<path style="&st6;" d="M16.649,35.377l-0.756-3.426h77.629v9.02H18.082l1.051-4.16L16.649,35.377z M40.13,33.045h-6.192
		l-5.504,6.667h6.192L40.13,33.045z M50.639,33.045h-6.192l-5.504,6.667h6.192L50.639,33.045z M82.163,33.045h-6.192l-5.505,6.667
		h6.192L82.163,33.045z M92.671,33.045h-6.191l-5.505,6.667h6.192L92.671,33.045z M61.146,33.045h-6.191l-5.505,6.667h6.192
		L61.146,33.045z M71.654,33.045h-6.192l-5.503,6.667h6.191L71.654,33.045z M29.623,33.045h-6.192l-5.504,6.667h6.191L29.623,33.045
		z"/>
	<path style="&st6;" d="M0.761,24.725L89.592,0l2.438,8.75L14.859,30.23l-8.817-3.851L0.761,24.725z M62.373,15.978l5.961-1.68
		l-7.239-5.395l-5.959,1.68L62.373,15.978z M52.26,18.828l5.96-1.68l-7.239-5.395l-5.959,1.68L52.26,18.828z M21.918,27.379
		l5.96-1.679l-7.24-5.396l-5.96,1.68L21.918,27.379z M42.146,21.679l5.959-1.68l-7.239-5.395l-5.958,1.68L42.146,21.679z
		 M32.032,24.529l5.959-1.68l-7.24-5.396l-5.959,1.681L32.032,24.529z M72.488,13.127l5.96-1.68l-7.239-5.396l-5.96,1.681
		L72.488,13.127z M82.603,10.276l5.959-1.68l-7.239-5.395l-5.959,1.68L82.603,10.276z"/>
	<path style="&st6;" d="M0.919,24.114c0.426,0,9.654,0,9.654,0l10.574,12.767c0,0,0,3.036,0,3.222c0,0.186-0.624,0.869-1.051,0.869
		c-0.427,0-16.944,0-17.995,0S0,40.475,0,39.607c0-0.868,0-14.626,0-14.626S0.493,24.114,0.919,24.114z M16.375,35.971
		c-0.87,0-1.577,0.667-1.577,1.487c0,0.822,0.707,1.488,1.577,1.488c0.871,0,1.576-0.666,1.576-1.488
		C17.951,36.638,17.246,35.971,16.375,35.971z M4.705,35.884c-0.871,0-1.576,0.666-1.576,1.487c0,0.822,0.706,1.488,1.576,1.488
		s1.576-0.667,1.576-1.488C6.281,36.55,5.576,35.884,4.705,35.884z M4.521,26.389c-0.87,0-1.576,0.667-1.576,1.487
		c0,0.822,0.706,1.488,1.576,1.488c0.871,0,1.576-0.666,1.576-1.488C6.097,27.055,5.392,26.389,4.521,26.389z"/>
</g>
<g id="IPTV" style="&st18;">
	<path style="&st6;" d="M60.311,22.691c0,3.805-3.085,6.89-6.89,6.89H44.16c-3.805,0-6.89-3.085-6.89-6.89l0,0
		c0-3.805,3.085-6.89,6.89-6.89h9.261C57.226,15.802,60.311,18.887,60.311,22.691L60.311,22.691z"/>
	<path style="&st6;" d="M53.792,21.924c0.396,0.397,0.396,1.04,0,1.438l0,0c-0.396,0.396-1.04,0.396-1.437,0L31.592,2.597
		c-0.397-0.397-0.397-1.041,0-1.438l0,0c0.395-0.396,1.041-0.396,1.437,0L53.792,21.924z"/>
	<path style="&st6;" d="M46.571,22.398c-0.399,0.392-1.047,0.392-1.438-0.007l0,0c-0.397-0.399-0.394-1.042,0.005-1.438
		L66.005,0.293c0.399-0.394,1.045-0.391,1.44,0.008l0,0c0.396,0.399,0.39,1.041-0.009,1.437L46.571,22.398z"/>
	<path style="&st6;" d="M94.871,68.624c0,11.975-9.71,21.684-21.686,21.684H21.685C9.709,90.308,0,80.599,0,68.624V42.421
		c0-11.976,9.709-21.685,21.685-21.685h51.501c11.976,0,21.686,9.709,21.686,21.685V68.624z M89.901,42.985
		c0-10.851-8.143-17.839-20.409-17.839H25.378c-12.266,0-20.409,6.988-20.409,17.839v25.072c0,10.852,8.143,17.842,20.409,17.842
		h44.114c12.267,0,20.409-6.99,20.409-17.842V42.985z"/>
	<g style="&st14;">
		<rect x="19.297" y="44.866" style="&st13;" width="78.413" height="35.055"/>
		<path style="&st12;" d="M24.304,45.974v20.702h-2.703V45.974H24.304z"/>
		<path style="&st12;" d="M28.974,46.219c1.29-0.215,2.979-0.399,5.129-0.399c2.642,0,4.577,0.614,5.805,1.721
			c1.106,0.982,1.813,2.487,1.813,4.331c0,1.873-0.553,3.348-1.597,4.424c-1.444,1.504-3.717,2.271-6.328,2.271
			c-0.798,0-1.536-0.029-2.15-0.184v8.293h-2.672V46.219z M31.646,56.201c0.583,0.154,1.321,0.217,2.211,0.217
			c3.225,0,5.191-1.598,5.191-4.393c0-2.765-1.966-4.085-4.884-4.085c-1.167,0-2.058,0.092-2.519,0.215V56.201z"/>
		<path style="&st12;" d="M49.249,48.247h-6.297v-2.272h15.328v2.272h-6.328v18.429h-2.703V48.247z"/>
		<path style="&st12;" d="M66.358,66.676L59.57,45.974h2.918l3.226,10.198c0.86,2.795,1.628,5.313,2.212,7.74h0.062
			c0.583-2.396,1.412-5.008,2.364-7.711l3.502-10.227h2.856l-7.402,20.702H66.358z"/>
	</g>
</g>
<g id="Satelite" style="&st18;">
	<polygon style="&st6;" points="48.577,53.313 45.043,46.579 52.266,48.084 	"/>
	<path style="&st6;" d="M70.256,8.836c2.309,30.64-31.662,69.092-54.747,72.225C31.834,73.641,63.66,35.054,70.256,8.836z"/>
	<path style="&st6;" d="M26.4,51.607c0.164-15.332,10.576-22.62,18.806-24.264C41.231,28.083,27.462,35.923,26.4,51.607z"/>
	<path style="&st6;" d="M13.509,51.297c0.236-21.976,15.159-32.422,26.954-34.778C34.768,17.579,15.032,28.815,13.509,51.297z"/>
	<path style="&st6;" d="M0,52.207C0.354,19.217,22.758,3.537,40.463,0C31.912,1.591,2.286,18.459,0,52.207z"/>
	<path style="&st6;" d="M53.447,55.998c12.283,13.373,11.689,32.381,5.596,43.533C60.787,89.799,61.115,71.166,53.447,55.998z"/>
	<circle style="&st6;" cx="44.37" cy="46.053" r="0.836"/>
</g>
<g id="Radio" style="&st18;">
	<path style="&st6;" d="M99.313,71.98c0,3.465-2.809,6.273-6.273,6.273H6.273C2.809,78.254,0,75.445,0,71.98V20.544
		c0-3.465,2.809-6.273,6.273-6.273h86.766c3.465,0,6.273,2.808,6.273,6.273V71.98z M17.787,28.386c-3.638,0-6.587,2.949-6.587,6.587
		s2.949,6.587,6.587,6.587s6.587-2.949,6.587-6.587S21.424,28.386,17.787,28.386z M17.787,52.201c-3.638,0-6.587,2.949-6.587,6.586
		c0,3.639,2.949,6.588,6.587,6.588s6.587-2.949,6.587-6.588C24.374,55.15,21.424,52.201,17.787,52.201z M65.787,20.858
		c-14.377,0-26.035,11.656-26.035,26.034c0,14.377,11.658,26.034,26.035,26.034S91.82,61.27,91.82,46.892
		C91.82,32.514,80.164,20.858,65.787,20.858z"/>
	<rect x="58.15" y="16.677" style="&st6;" width="1.061" height="59.071"/>
	<rect x="64.992" y="16.677" style="&st6;" width="1.063" height="59.071"/>
	<rect x="71.66" y="16.677" style="&st6;" width="1.061" height="59.071"/>
	<polygon style="&st6;" points="72.469,15.84 22.334,3.192 23.328,2.457 91.184,15.84 	"/>
	<circle style="&st6;" cx="21.472" cy="2.745" r="2.745"/>
</g>
<g id="Audio" style="&st18;">
	<path style="&st6;" d="M89.48,68.436c-13.02-3.427-27.41,5.39-27.41,15.715c0,5.117,5.527,10.553,14.619,9.685
		c15.854-2.193,18.451-17.771,18.457-18.091c0-4.386,0-75.744,0-75.744L27.441,5.574c0,0,0,66.47,0,68.435
		c-7.857-2.147-13.979,0.594-15.258,0.913c-1.28,0.32-13.249,6.67-12.106,15.807C1.218,98.86,11.224,99.454,12.64,99.5
		c11.558-0.183,15.715-7.629,16.538-8.726c0.822-1.096,3.734-6.898,3.746-10.553c0.012-3.655,0.183-56.739,0.183-56.739
		l56.375-4.569C89.48,18.914,89.48,65.054,89.48,68.436z"/>
</g>
<g id="Layer_18" style="&st18;">
	<path style="&st6;" d="M6.842,28.656c5.539,0,12.445,0,12.445,0S31.32,63.159,31.732,64.078c0.935,2.089,3.102,2.922,6.146,2.872
		c2.051,0,36.989,0,38.082,0c3.498,0.002,5.597-4.177,6.431-5.828c0.833-1.653,14.116-27.303,15.142-29.663
		c3.949-7.231-5.862-10.687-8.494-5.265C86.406,31.617,74.262,57,74.262,57L40.21,56.969c0,0-11.554-32.757-12.033-34.877
		c-0.479-2.121-2.737-3.967-4.241-3.967s-10.735,0-17.094,0C0.482,18.125,1.303,28.656,6.842,28.656z"/>
	<circle style="&st6;" cx="38.022" cy="78.849" r="9.026"/>
	<path style="&st6;" d="M83.288,78.849c0,4.984-4.039,9.026-9.026,9.026c-4.981,0-9.027-4.042-9.027-9.026s4.046-9.026,9.027-9.026
		C79.249,69.822,83.288,73.864,83.288,78.849z"/>
	<path style="&st6;" d="M79.188,32.418c0,2.228-1.808,4.034-4.035,4.034H42.056c-2.228,0-4.034-1.807-4.034-4.034l0,0
		c0-2.229,1.806-4.036,4.034-4.036h33.096C77.38,28.382,79.188,30.188,79.188,32.418L79.188,32.418z"/>
	<path style="&st6;" d="M76.592,45.205c0,2.266-1.837,4.103-4.104,4.103H44.725c-2.267,0-4.103-1.836-4.103-4.103l0,0
		c0-2.267,1.836-4.103,4.103-4.103h27.763C74.755,41.102,76.592,42.938,76.592,45.205L76.592,45.205z"/>
</g>
<g id="Layer_19" style="&st18;">
	<polygon style="&st6;" points="11.985,50 50,11.985 88.016,50 	"/>
</g>
<g id="Layer_20" style="&st18;">
	<path style="&st6;" d="M93.245,92.466c-3.281,3.309-8.623,3.331-11.933,0.051L7.638,19.467c-3.31-3.281-3.332-8.624-0.051-11.932
		l0,0c3.281-3.309,8.623-3.332,11.932-0.051l73.675,73.049C96.503,83.813,96.525,89.156,93.245,92.466L93.245,92.466z M7.535,92.83
		c3.31,3.28,8.652,3.258,11.933-0.051l73.049-73.676c3.28-3.31,3.258-8.651-0.052-11.932l0,0c-3.309-3.281-8.65-3.259-11.932,0.051
		L7.484,80.897C4.204,84.207,4.226,89.549,7.535,92.83L7.535,92.83z"/>
	<path style="&st6;" d="M54.814,50c0,2.659-2.155,4.814-4.814,4.814l0,0c-2.659,0-4.814-2.155-4.814-4.814l0,0
		c0-2.659,2.156-4.814,4.814-4.814l0,0C52.659,45.186,54.814,47.341,54.814,50L54.814,50z"/>
</g>
</svg>
