<?xml version="1.0" encoding="utf-8"?>
<!-- Generator: Adobe Illustrator 15.0.2, SVG Export Plug-In . SVG Version: 6.00 Build 0)  -->
<!DOCTYPE svg PUBLIC "-//W3C//DTD SVG 1.1//EN" "http://www.w3.org/Graphics/SVG/1.1/DTD/svg11.dtd">
<svg version="1.1" id="Layer_22" xmlns="http://www.w3.org/2000/svg" xmlns:xlink="http://www.w3.org/1999/xlink" x="0px" y="0px"
	 width="100px" height="100px" viewBox="0 0 100 100" style="enable-background:new 0 0 100 100;" xml:space="preserve">
<g>
	<g>
		<path style="fill-rule:evenodd;clip-rule:evenodd;fill:#FFFFFF;" d="M40.169,57.858h-4.221c-1.296,0-2.347,1.051-2.347,2.346
			v4.223c0,1.295,1.051,2.347,2.347,2.347h4.221c1.296,0,2.347-1.052,2.347-2.347v-4.223C42.517,58.909,41.466,57.858,40.169,57.858
			z M40.169,46.123h-4.221c-1.296,0-2.347,1.052-2.347,2.347v4.222c0,1.296,1.051,2.347,2.347,2.347h4.221
			c1.296,0,2.347-1.051,2.347-2.347V48.47C42.517,47.175,41.466,46.123,40.169,46.123z M51.904,69.593h-4.221
			c-1.295,0-2.347,1.052-2.347,2.348v4.222c0,1.296,1.051,2.346,2.347,2.346h4.221c1.297,0,2.348-1.05,2.348-2.346V71.94
			C54.252,70.645,53.201,69.593,51.904,69.593z M51.904,57.858h-4.221c-1.295,0-2.347,1.051-2.347,2.346v4.223
			c0,1.295,1.051,2.347,2.347,2.347h4.221c1.297,0,2.348-1.052,2.348-2.347v-4.223C54.252,58.909,53.201,57.858,51.904,57.858z
			 M40.169,69.593h-4.221c-1.296,0-2.347,1.052-2.347,2.348v4.222c0,1.296,1.051,2.346,2.347,2.346h4.221
			c1.296,0,2.347-1.05,2.347-2.346V71.94C42.517,70.645,41.466,69.593,40.169,69.593z M51.904,46.123h-4.221
			c-1.295,0-2.347,1.052-2.347,2.347v4.222c0,1.296,1.051,2.347,2.347,2.347h4.221c1.297,0,2.348-1.051,2.348-2.347V48.47
			C54.252,47.175,53.201,46.123,51.904,46.123z M28.435,69.593h-4.221c-1.296,0-2.347,1.052-2.347,2.348v4.222
			c0,1.296,1.051,2.346,2.347,2.346h4.221c1.296,0,2.347-1.05,2.347-2.346V71.94C30.782,70.645,29.73,69.593,28.435,69.593z
			 M28.435,57.858h-4.221c-1.296,0-2.347,1.051-2.347,2.346v4.223c0,1.295,1.051,2.347,2.347,2.347h4.221
			c1.296,0,2.347-1.052,2.347-2.347v-4.223C30.782,58.909,29.73,57.858,28.435,57.858z M28.435,46.123h-4.221
			c-1.296,0-2.347,1.052-2.347,2.347v4.222c0,1.296,1.051,2.347,2.347,2.347h4.221c1.296,0,2.347-1.051,2.347-2.347V48.47
			C30.782,47.175,29.73,46.123,28.435,46.123z M75.374,34.388h-4.221c-1.296,0-2.347,1.051-2.347,2.347v4.221
			c0,1.295,1.051,2.346,2.347,2.346h4.221c1.297,0,2.348-1.05,2.348-2.346v-4.221C77.722,35.439,76.671,34.388,75.374,34.388z
			 M75.374,57.858h-4.221c-1.296,0-2.347,1.051-2.347,2.346v4.223c0,1.295,1.051,2.347,2.347,2.347h4.221
			c1.297,0,2.348-1.052,2.348-2.347v-4.223C77.722,58.909,76.671,57.858,75.374,57.858z M63.64,34.388h-4.221
			c-1.296,0-2.348,1.051-2.348,2.347v4.221c0,1.295,1.052,2.346,2.348,2.346h4.221c1.296,0,2.347-1.05,2.347-2.346v-4.221
			C65.986,35.439,64.936,34.388,63.64,34.388z M75.374,46.123h-4.221c-1.296,0-2.347,1.052-2.347,2.347v4.222
			c0,1.296,1.051,2.347,2.347,2.347h4.221c1.297,0,2.348-1.051,2.348-2.347V48.47C77.722,47.175,76.671,46.123,75.374,46.123z
			 M86.524,11.247h-73.05c-1.62,0-2.934,1.313-2.934,2.934v73.05c0,1.621,1.313,2.934,2.934,2.934h73.05
			c1.621,0,2.935-1.313,2.935-2.934V14.18C89.459,12.56,88.146,11.247,86.524,11.247z M84.841,83.404
			c0,1.503-1.181,2.723-2.639,2.723H18.314c-1.458,0-2.64-1.22-2.64-2.723V30.328c0-1.503,1.182-2.722,2.64-2.722h63.888
			c1.458,0,2.639,1.218,2.639,2.722V83.404z M63.64,46.123h-4.221c-1.296,0-2.348,1.052-2.348,2.347v4.222
			c0,1.296,1.052,2.347,2.348,2.347h4.221c1.296,0,2.347-1.051,2.347-2.347V48.47C65.986,47.175,64.936,46.123,63.64,46.123z
			 M51.904,34.388h-4.221c-1.295,0-2.347,1.051-2.347,2.347v4.221c0,1.295,1.051,2.346,2.347,2.346h4.221
			c1.297,0,2.348-1.05,2.348-2.346v-4.221C54.252,35.439,53.201,34.388,51.904,34.388z M63.64,57.858h-4.221
			c-1.296,0-2.348,1.051-2.348,2.346v4.223c0,1.295,1.052,2.347,2.348,2.347h4.221c1.296,0,2.347-1.052,2.347-2.347v-4.223
			C65.986,58.909,64.936,57.858,63.64,57.858z M63.64,69.593h-4.221c-1.296,0-2.348,1.052-2.348,2.348v4.222
			c0,1.296,1.052,2.346,2.348,2.346h4.221c1.296,0,2.347-1.05,2.347-2.346V71.94C65.986,70.645,64.936,69.593,63.64,69.593z"/>
	</g>
</g>
</svg>
