<?xml version="1.0" encoding="utf-8"?>
<!-- Generator: Adobe Illustrator 15.0.2, SVG Export Plug-In . SVG Version: 6.00 Build 0)  -->
<!DOCTYPE svg PUBLIC "-//W3C//DTD SVG 1.1//EN" "http://www.w3.org/Graphics/SVG/1.1/DTD/svg11.dtd">
<svg version="1.1" id="Layer_20" xmlns="http://www.w3.org/2000/svg" xmlns:xlink="http://www.w3.org/1999/xlink" x="0px" y="0px"
	 width="100px" height="100px" viewBox="0 0 100 100" style="enable-background:new 0 0 100 100;" xml:space="preserve">
<path style="fill:#FFFFFF;" d="M93.245,92.466c-3.281,3.309-8.623,3.331-11.933,0.051L7.638,19.467
	c-3.31-3.281-3.332-8.624-0.051-11.932l0,0c3.281-3.309,8.623-3.332,11.932-0.051l73.675,73.049
	C96.503,83.813,96.525,89.156,93.245,92.466L93.245,92.466z M7.535,92.83c3.31,3.28,8.652,3.258,11.933-0.051l73.049-73.676
	c3.28-3.31,3.258-8.651-0.052-11.932l0,0c-3.309-3.281-8.65-3.259-11.932,0.051L7.484,80.897C4.204,84.207,4.226,89.549,7.535,92.83
	L7.535,92.83z"/>
<path style="fill:#FFFFFF;" d="M54.814,50c0,2.659-2.155,4.814-4.814,4.814l0,0c-2.659,0-4.814-2.155-4.814-4.814l0,0
	c0-2.659,2.156-4.814,4.814-4.814l0,0C52.659,45.186,54.814,47.341,54.814,50L54.814,50z"/>
</svg>
